<svg xmlns="http://www.w3.org/2000/svg" viewBox="0 0 500 500" fill="none" stroke="currentColor" stroke-width="12" stroke-linecap="round" stroke-linejoin="round">
  <!-- Devasya Peacock Logo matching user image -->
  <!-- Tail Fan Outer Arc & Frame -->
  <path d="M 85 450 C 70 340 100 180 290 35 L 290 270 Z" stroke-width="14" />
  
  <!-- Feather Stem Arc inside Tail Fan -->
  <path d="M 120 420 C 130 330 170 200 285 125" stroke-width="8" />
  
  <!-- 4 Feather Eyelets along the arc -->
  <!-- Feather 1 (Top) -->
  <path d="M 260 120 C 240 85 215 90 215 115 C 215 135 240 150 260 120 Z" stroke-width="10" />
  
  <!-- Feather 2 -->
  <path d="M 195 190 C 160 165 140 180 140 205 C 140 225 170 235 195 190 Z" stroke-width="10" />
  
  <!-- Feather 3 -->
  <path d="M 160 275 C 120 250 100 270 100 295 C 100 320 130 325 160 275 Z" stroke-width="10" />
  
  <!-- Feather 4 (Bottom) -->
  <path d="M 160 365 C 110 350 90 375 90 400 C 90 420 125 430 160 365 Z" stroke-width="10" />

  <!-- Lower Body Wedge & Base -->
  <path d="M 135 465 L 340 295 L 340 405 Z" stroke-width="14" />
  
  <!-- Peacock Head, Plume, Beak, and Graceful Breast Curve -->
  <!-- Crest plume curling backward from crown -->
  <path d="M 360 85 C 340 60 325 70 335 55 C 345 40 355 45 365 70" stroke-width="11" />
  
  <!-- Head & Beak -->
  <path d="M 340 145 C 330 115 340 85 365 85 C 385 85 415 115 415 115 L 360 135 Z" stroke-width="11" />
  
  <!-- Graceful Neck to Full Chest & Belly -->
  <path d="M 360 135 C 365 175 425 245 425 340 C 425 390 385 415 340 415" stroke-width="14" />
  
  <!-- Vertical Spine / Inner Division -->
  <path d="M 330 145 L 330 405" stroke-width="14" />
  
  <!-- Legs -->
  <line x1="300" y1="420" x2="335" y2="475" stroke-width="14" />
  <line x1="340" y1="415" x2="375" y2="475" stroke-width="14" />
</svg>
